<svg id="图层_1" data-name="图层 1" xmlns="http://www.w3.org/2000/svg" viewBox="0 0 160.18 40"><defs><style>.cls-1{fill:none;}</style></defs><title>vercel</title><path d="M88.17,11C81.92,11,77.41,15,77.41,21.13s5.08,10.19,11.32,10.19a11.7,11.7,0,0,0,9.16-4l-4.33-2.5a6.47,6.47,0,0,1-4.82,2,6.06,6.06,0,0,1-5.88-3.67H98.73a12.09,12.09,0,0,0,.2-2C98.93,15,94.4,11,88.17,11Zm-5.35,8.2a5.72,5.72,0,0,1,10.69,0ZM149.1,11c-6.24,0-10.74,4.07-10.74,10.18s5.07,10.19,11.31,10.19a11.7,11.7,0,0,0,9.16-4l-4.33-2.5a6.48,6.48,0,0,1-4.83,2,6,6,0,0,1-5.87-3.67h15.86a10.25,10.25,0,0,0,.2-2C159.86,15,155.33,11,149.1,11Zm-5.35,8.2a5.74,5.74,0,0,1,10.71,0Zm-22.08,2A5.73,5.73,0,0,0,132.31,24l4.34,2.5c-1.81,3-5.17,4.81-9.32,4.81-6.26,0-10.75-4.08-10.75-10.19S121.08,11,127.33,11c4.15,0,7.52,1.81,9.32,4.8l-4.34,2.51a5.72,5.72,0,0,0-10.64,2.87Zm46.68-16.4v26h-5.09v-26ZM29.26,1.89,50.18,38.11H8.35ZM81.54,4.73,65.86,31.89,50.18,4.73h5.88l9.8,17,9.8-17Zm33.34,6.79V17a7,7,0,0,0-1.81-.28,5.44,5.44,0,0,0-5.66,5.2,3.53,3.53,0,0,0,0,.46v8.39h-5.09V11.52h5.09v5.2C107.41,13.84,110.75,11.52,114.88,11.52Z" transform="translate(-8.16)"/><rect class="cls-1" width="160" height="40"/></svg>