<svg xmlns="http://www.w3.org/2000/svg" xmlns:xlink="http://www.w3.org/1999/xlink" width="48" height="48" viewBox="0 0 192 192"><defs><circle id="a" cx="96" cy="96" r="88"/></defs><clipPath id="b"><use xlink:href="#a" overflow="visible"/></clipPath><g clip-path="url(#b)"><path fill="#DB4437" d="M22 8v108h39l35-60h88V8z"/><linearGradient id="c" gradientUnits="userSpaceOnUse" x1="29.337" y1="75.021" x2="81.837" y2="44.354"><stop offset="0" stop-color="#a52714" stop-opacity=".6"/><stop offset=".66" stop-color="#a52714" stop-opacity="0"/></linearGradient><path fill="url(#c)" d="M22 8v108h39l35-60h88V8z"/></g><path clip-path="url(#b)" fill="#3E2723" fill-opacity=".15" d="M62 116L22 47v1l39 68z"/><g clip-path="url(#b)"><path fill="#0F9D58" d="M8 184h84l39-39v-29H61L8 24z"/><linearGradient id="d" gradientUnits="userSpaceOnUse" x1="110.872" y1="164.495" x2="52.538" y2="130.329"><stop offset="0" stop-color="#055524" stop-opacity=".4"/><stop offset=".33" stop-color="#055524" stop-opacity="0"/></linearGradient><path fill="url(#d)" d="M8 184h84l39-39v-29H61L8 24z"/></g><path clip-path="url(#b)" fill="#263238" fill-opacity=".15" d="M130 117h-1l-38 67h1l38-67z"/><g clip-path="url(#b)"><defs><path id="e" d="M8 184h84l39-39v-29H61L8 24z"/></defs><clipPath id="f"><use xlink:href="#e" overflow="visible"/></clipPath><g clip-path="url(#f)"><path fill="#FFCD40" d="M96 56l35 60-39 68h92V56z"/><linearGradient id="g" gradientUnits="userSpaceOnUse" x1="121.858" y1="49.804" x2="136.547" y2="114.13"><stop offset="0" stop-color="#ea6100" stop-opacity=".3"/><stop offset=".66" stop-color="#ea6100" stop-opacity="0"/></linearGradient><path fill="url(#g)" d="M96 56l35 60-39 68h92V56z"/></g></g><g clip-path="url(#b)"><path fill="#FFCD40" d="M96 56l35 60-39 68h92V56z"/><linearGradient id="h" gradientUnits="userSpaceOnUse" x1="121.858" y1="49.804" x2="136.547" y2="114.13"><stop offset="0" stop-color="#ea6100" stop-opacity=".3"/><stop offset=".66" stop-color="#ea6100" stop-opacity="0"/></linearGradient><path fill="url(#h)" d="M96 56l35 60-39 68h92V56z"/></g><g clip-path="url(#b)"><defs><path id="i" d="M96 56l35 60-39 68h92V56z"/></defs><clipPath id="j"><use xlink:href="#i" overflow="visible"/></clipPath><g clip-path="url(#j)"><path fill="#DB4437" d="M22 8v108h39l35-60h88V8z"/><linearGradient id="k" gradientUnits="userSpaceOnUse" x1="29.337" y1="75.021" x2="81.837" y2="44.354"><stop offset="0" stop-color="#a52714" stop-opacity=".6"/><stop offset=".66" stop-color="#a52714" stop-opacity="0"/></linearGradient><path fill="url(#k)" d="M22 8v108h39l35-60h88V8z"/></g></g><radialGradient id="l" cx="668.176" cy="55.948" r="84.078" gradientTransform="translate(-576)" gradientUnits="userSpaceOnUse"><stop offset="0" stop-color="#3e2723" stop-opacity=".2"/><stop offset="1" stop-color="#3e2723" stop-opacity="0"/></radialGradient><path clip-path="url(#b)" fill="url(#l)" d="M96 56v21l78-21z"/><g clip-path="url(#b)"><defs><path id="m" d="M22 8v40l39 68 35-60h88V8z"/></defs><clipPath id="n"><use xlink:href="#m" overflow="visible"/></clipPath><g clip-path="url(#n)"><path fill="#0F9D58" d="M8 184h84l39-39v-29H61L8 24z"/><linearGradient id="o" gradientUnits="userSpaceOnUse" x1="110.872" y1="164.495" x2="52.538" y2="130.329"><stop offset="0" stop-color="#055524" stop-opacity=".4"/><stop offset=".33" stop-color="#055524" stop-opacity="0"/></linearGradient><path fill="url(#o)" d="M8 184h84l39-39v-29H61L8 24z"/></g></g><radialGradient id="p" cx="597.875" cy="48.52" r="78.044" gradientTransform="translate(-576)" gradientUnits="userSpaceOnUse"><stop offset="0" stop-color="#3e2723" stop-opacity=".2"/><stop offset="1" stop-color="#3e2723" stop-opacity="0"/></radialGradient><path clip-path="url(#b)" fill="url(#p)" d="M22 48l57 58-18 10z"/><radialGradient id="q" cx="671.844" cy="96.138" r="87.87" gradientTransform="translate(-576)" gradientUnits="userSpaceOnUse"><stop offset="0" stop-color="#263238" stop-opacity=".2"/><stop offset="1" stop-color="#263238" stop-opacity="0"/></radialGradient><path clip-path="url(#b)" fill="url(#q)" d="M92 184l21-78 18 10z"/><g clip-path="url(#b)"><circle fill="#F1F1F1" cx="96" cy="96" r="40"/><circle fill="#4285F4" cx="96" cy="96" r="32"/></g><g clip-path="url(#b)"><path fill="#3E2723" fill-opacity=".2" d="M96 55c-22 0-40 18-40 40v1c0-22 18-40 40-40h88v-1H96z"/><path fill="#FFF" fill-opacity=".1" d="M131 116c-7 12-20 20-35 20s-28-8-35-20L8 24v1l53 92c7 12 20 20 35 20s28-8 35-20v-1z"/><path opacity=".1" fill="#3E2723" d="M97 56c21 0 39 18 39 40s-18 40-39 40c22 0 40-18 40-40s-18-40-40-40z"/><path fill="#FFF" fill-opacity=".2" d="M131 117c3-6 5-12 5-20l-1-12 1 11c0 7-2 14-5 20l-39 68h1l38-67z"/></g><g clip-path="url(#b)"><path fill="#FFF" fill-opacity=".2" d="M96 9c48 0 88 39 88 88v-1c0-49-39-88-88-88S8 47 8 96v1C8 48 48 9 96 9z"/><path fill="#3E2723" fill-opacity=".15" d="M96 183c48 0 88-39 88-87 0 49-39 88-88 88S8 145 8 96c0 48 40 87 88 87z"/></g><radialGradient id="r" cx="34.286" cy="32.014" r="176.746" gradientUnits="userSpaceOnUse"><stop offset="0" stop-color="#fff" stop-opacity=".1"/><stop offset="1" stop-color="#fff" stop-opacity="0"/></radialGradient><circle fill="url(#r)" cx="96" cy="96" r="88"/><path fill="none" d="M0 0h192v192H0z"/></svg>